<?xml version="1.0" standalone="no"?>
<!DOCTYPE svg PUBLIC "-//W3C//DTD SVG 20010904//EN"
 "http://www.w3.org/TR/2001/REC-SVG-20010904/DTD/svg10.dtd">
<svg version="1.0" xmlns="http://www.w3.org/2000/svg"
 width="1024.000000pt" height="1024.000000pt" viewBox="0 0 1024.000000 1024.000000"
 preserveAspectRatio="xMidYMid meet">

<g transform="translate(0.000000,1024.000000) scale(0.100000,-0.100000)"
fill="#ffffff" stroke="none">
<path d="M0 5120 l0 -0 0 0 0 0 0 0 0 0 0 0 0 0 0
-5120z m7880 1875 c114 -18 171 -34 254 -75 254 -125 323 -396 190 -745 -286
-745 -1430 -1713 -2891 -2444 -382 -191 -864 -401 -1198 -521 -545 -197 -918
-298 -1325 -361 -176 -27 -517 -37 -639 -19 -238 35 -386 122 -454 269 -40 84
-49 227 -22 347 67 307 330 727 688 1102 62 64 126 129 143 144 l31 28 6 -193
c4 -105 12 -221 20 -257 l13 -65 -33 -67 c-59 -120 -76 -232 -49 -322 93 -307
598 -310 1521 -9 527 172 1189 477 1650 761 638 392 1188 853 1462 1223 23 31
64 96 92 144 163 285 124 478 -114 559 -61 21 -209 30 -290 19 l-60 -9 -95 80
c-52 43 -128 102 -168 130 l-72 50 27 15 c46 24 281 100 403 131 131 33 359
76 470 89 122 14 338 12 440 -4z m-2390 -60 c410 -62 826 -246 1125 -497 166
-139 311 -297 408 -442 l45 -68 -26 -37 c-63 -85 -166 -211 -172 -211 -4 0
-26 30 -50 66 -61 95 -128 176 -238 288 -555 567 -1383 755 -2118 480 -759
-283 -1264 -1022 -1264 -1849 0 -267 49 -510 156 -773 9 -23 15 -44 13 -46 -9
-9 -311 -28 -318 -20 -25 28 -95 243 -124 379 -43 202 -57 554 -29 750 85 598
364 1108 817 1490 325 273 759 454 1215 504 117 13 433 5 560 -14z"/>
</g>
</svg>
